<mxfile host="app.diagrams.net" modified="2024-05-02T14:37:10.739Z" agent="Mozilla/5.0 (Windows NT 10.0; Win64; x64) AppleWebKit/537.36 (KHTML, like Gecko) Chrome/124.0.0.0 Safari/537.36 Edg/124.0.0.0" etag="8zHmdr-K4j-Jef27nGw5" version="24.3.1" type="device" pages="3">
  <diagram name="PÃ¡gina-1" id="sYcpVGdWfEmvncoAf6g-">
    <mxGraphModel dx="1386" dy="783" grid="1" gridSize="10" guides="1" tooltips="1" connect="1" arrows="1" fold="1" page="1" pageScale="1" pageWidth="827" pageHeight="1169" math="0" shadow="0">
      <root>
        <mxCell id="0" />
        <mxCell id="1" parent="0" />
        <mxCell id="DnV5-m6FtWE06OuVfOL7-3" value="" style="group" parent="1" vertex="1" connectable="0">
          <mxGeometry x="120" y="70" width="630" height="450" as="geometry" />
        </mxCell>
        <mxCell id="DnV5-m6FtWE06OuVfOL7-1" value="" style="rounded=0;whiteSpace=wrap;html=1;movable=0;resizable=0;rotatable=0;deletable=0;editable=0;locked=1;connectable=0;" parent="DnV5-m6FtWE06OuVfOL7-3" vertex="1">
          <mxGeometry x="9" width="621" height="450" as="geometry" />
        </mxCell>
        <mxCell id="z_w1RKRg0GO3UO0mCa1G-2" value="Sistema de sanidad publica" style="text;html=1;align=center;verticalAlign=middle;whiteSpace=wrap;rounded=0;" vertex="1" parent="DnV5-m6FtWE06OuVfOL7-3">
          <mxGeometry x="20" y="10" width="140" height="30" as="geometry" />
        </mxCell>
        <mxCell id="z_w1RKRg0GO3UO0mCa1G-3" value="autenticarse" style="ellipse;whiteSpace=wrap;html=1;" vertex="1" parent="DnV5-m6FtWE06OuVfOL7-3">
          <mxGeometry x="400" y="340" width="120" height="80" as="geometry" />
        </mxCell>
        <mxCell id="z_w1RKRg0GO3UO0mCa1G-10" style="edgeStyle=orthogonalEdgeStyle;rounded=0;orthogonalLoop=1;jettySize=auto;html=1;exitX=0.5;exitY=0;exitDx=0;exitDy=0;entryX=1;entryY=0.5;entryDx=0;entryDy=0;dashed=1;endArrow=blockThin;endFill=1;startArrow=none;startFill=0;" edge="1" parent="DnV5-m6FtWE06OuVfOL7-3" source="z_w1RKRg0GO3UO0mCa1G-4" target="z_w1RKRg0GO3UO0mCa1G-5">
          <mxGeometry relative="1" as="geometry" />
        </mxCell>
        <mxCell id="z_w1RKRg0GO3UO0mCa1G-4" value="reservar cita" style="ellipse;whiteSpace=wrap;html=1;" vertex="1" parent="DnV5-m6FtWE06OuVfOL7-3">
          <mxGeometry x="500" y="100" width="120" height="80" as="geometry" />
        </mxCell>
        <mxCell id="z_w1RKRg0GO3UO0mCa1G-12" style="edgeStyle=orthogonalEdgeStyle;rounded=0;orthogonalLoop=1;jettySize=auto;html=1;exitX=0;exitY=0.5;exitDx=0;exitDy=0;startArrow=classicThin;startFill=1;endArrow=none;endFill=0;dashed=1;" edge="1" parent="DnV5-m6FtWE06OuVfOL7-3" source="z_w1RKRg0GO3UO0mCa1G-5" target="z_w1RKRg0GO3UO0mCa1G-6">
          <mxGeometry relative="1" as="geometry" />
        </mxCell>
        <mxCell id="z_w1RKRg0GO3UO0mCa1G-5" value="mostrar servicios, fechas y horas" style="ellipse;whiteSpace=wrap;html=1;" vertex="1" parent="DnV5-m6FtWE06OuVfOL7-3">
          <mxGeometry x="390" y="20" width="120" height="80" as="geometry" />
        </mxCell>
        <mxCell id="z_w1RKRg0GO3UO0mCa1G-14" style="edgeStyle=orthogonalEdgeStyle;rounded=0;orthogonalLoop=1;jettySize=auto;html=1;exitX=0.5;exitY=1;exitDx=0;exitDy=0;entryX=0.5;entryY=0;entryDx=0;entryDy=0;dashed=1;endArrow=classic;endFill=1;" edge="1" parent="DnV5-m6FtWE06OuVfOL7-3" source="z_w1RKRg0GO3UO0mCa1G-6" target="z_w1RKRg0GO3UO0mCa1G-7">
          <mxGeometry relative="1" as="geometry" />
        </mxCell>
        <mxCell id="z_w1RKRg0GO3UO0mCa1G-6" value="confirmar cita" style="ellipse;whiteSpace=wrap;html=1;" vertex="1" parent="DnV5-m6FtWE06OuVfOL7-3">
          <mxGeometry x="174" y="20" width="120" height="80" as="geometry" />
        </mxCell>
        <mxCell id="z_w1RKRg0GO3UO0mCa1G-7" value="generar justificante en pdf" style="ellipse;whiteSpace=wrap;html=1;" vertex="1" parent="DnV5-m6FtWE06OuVfOL7-3">
          <mxGeometry x="174" y="140" width="120" height="80" as="geometry" />
        </mxCell>
        <mxCell id="z_w1RKRg0GO3UO0mCa1G-11" value="&amp;lt;&amp;lt;include&amp;gt;&amp;gt;" style="text;html=1;align=center;verticalAlign=middle;whiteSpace=wrap;rounded=0;" vertex="1" parent="DnV5-m6FtWE06OuVfOL7-3">
          <mxGeometry x="520" y="30" width="60" height="30" as="geometry" />
        </mxCell>
        <mxCell id="z_w1RKRg0GO3UO0mCa1G-13" value="&amp;lt;&amp;lt;extend&amp;gt;&amp;gt;" style="text;html=1;align=center;verticalAlign=middle;whiteSpace=wrap;rounded=0;" vertex="1" parent="DnV5-m6FtWE06OuVfOL7-3">
          <mxGeometry x="310" y="20" width="60" height="30" as="geometry" />
        </mxCell>
        <mxCell id="z_w1RKRg0GO3UO0mCa1G-15" value="&amp;lt;&amp;lt;include&amp;gt;&amp;gt;" style="text;html=1;align=center;verticalAlign=middle;whiteSpace=wrap;rounded=0;" vertex="1" parent="DnV5-m6FtWE06OuVfOL7-3">
          <mxGeometry x="160" y="100" width="60" height="30" as="geometry" />
        </mxCell>
        <mxCell id="z_w1RKRg0GO3UO0mCa1G-21" style="edgeStyle=orthogonalEdgeStyle;rounded=0;orthogonalLoop=1;jettySize=auto;html=1;exitX=0;exitY=0.5;exitDx=0;exitDy=0;startArrow=none;startFill=0;endArrow=classicThin;endFill=1;dashed=1;" edge="1" parent="DnV5-m6FtWE06OuVfOL7-3" source="z_w1RKRg0GO3UO0mCa1G-16">
          <mxGeometry relative="1" as="geometry">
            <mxPoint x="160" y="379.8888888888889" as="targetPoint" />
            <Array as="points">
              <mxPoint x="180" y="380" />
              <mxPoint x="180" y="380" />
            </Array>
          </mxGeometry>
        </mxCell>
        <mxCell id="z_w1RKRg0GO3UO0mCa1G-16" value="anular cita" style="ellipse;whiteSpace=wrap;html=1;" vertex="1" parent="DnV5-m6FtWE06OuVfOL7-3">
          <mxGeometry x="200" y="340" width="120" height="80" as="geometry" />
        </mxCell>
        <mxCell id="z_w1RKRg0GO3UO0mCa1G-23" style="edgeStyle=orthogonalEdgeStyle;rounded=0;orthogonalLoop=1;jettySize=auto;html=1;exitX=0.5;exitY=0;exitDx=0;exitDy=0;dashed=1;endArrow=none;endFill=0;entryX=0;entryY=0.5;entryDx=0;entryDy=0;startArrow=classic;startFill=1;" edge="1" parent="DnV5-m6FtWE06OuVfOL7-3" source="z_w1RKRg0GO3UO0mCa1G-17" target="z_w1RKRg0GO3UO0mCa1G-19">
          <mxGeometry relative="1" as="geometry">
            <mxPoint x="100" y="300" as="targetPoint" />
          </mxGeometry>
        </mxCell>
        <mxCell id="z_w1RKRg0GO3UO0mCa1G-17" value="mostrar citas realizadas" style="ellipse;whiteSpace=wrap;html=1;" vertex="1" parent="DnV5-m6FtWE06OuVfOL7-3">
          <mxGeometry x="40" y="340" width="120" height="80" as="geometry" />
        </mxCell>
        <mxCell id="z_w1RKRg0GO3UO0mCa1G-19" value="Confirmar" style="ellipse;whiteSpace=wrap;html=1;" vertex="1" parent="DnV5-m6FtWE06OuVfOL7-3">
          <mxGeometry x="220" y="220" width="120" height="80" as="geometry" />
        </mxCell>
        <mxCell id="z_w1RKRg0GO3UO0mCa1G-22" value="&amp;lt;&amp;lt;include&amp;gt;&amp;gt;" style="text;html=1;align=center;verticalAlign=middle;whiteSpace=wrap;rounded=0;" vertex="1" parent="DnV5-m6FtWE06OuVfOL7-3">
          <mxGeometry x="150" y="400" width="60" height="30" as="geometry" />
        </mxCell>
        <mxCell id="z_w1RKRg0GO3UO0mCa1G-26" value="&amp;lt;&amp;lt;extend&amp;gt;&amp;gt;" style="text;html=1;align=center;verticalAlign=middle;whiteSpace=wrap;rounded=0;" vertex="1" parent="DnV5-m6FtWE06OuVfOL7-3">
          <mxGeometry x="110" y="230" width="60" height="30" as="geometry" />
        </mxCell>
        <mxCell id="z_w1RKRg0GO3UO0mCa1G-27" style="edgeStyle=orthogonalEdgeStyle;rounded=0;orthogonalLoop=1;jettySize=auto;html=1;exitX=0.5;exitY=0.5;exitDx=0;exitDy=0;exitPerimeter=0;" edge="1" parent="1" source="DnV5-m6FtWE06OuVfOL7-5" target="z_w1RKRg0GO3UO0mCa1G-16">
          <mxGeometry relative="1" as="geometry">
            <Array as="points">
              <mxPoint x="785" y="400" />
              <mxPoint x="380" y="400" />
            </Array>
          </mxGeometry>
        </mxCell>
        <mxCell id="DnV5-m6FtWE06OuVfOL7-5" value="Usuario&amp;nbsp;&lt;div&gt;Loggeado&lt;/div&gt;" style="shape=umlActor;verticalLabelPosition=bottom;verticalAlign=top;html=1;outlineConnect=0;" parent="1" vertex="1">
          <mxGeometry x="770" y="340" width="30" height="60" as="geometry" />
        </mxCell>
        <mxCell id="z_w1RKRg0GO3UO0mCa1G-9" style="edgeStyle=orthogonalEdgeStyle;rounded=0;orthogonalLoop=1;jettySize=auto;html=1;entryX=0.601;entryY=1.015;entryDx=0;entryDy=0;entryPerimeter=0;exitX=0.5;exitY=0.5;exitDx=0;exitDy=0;exitPerimeter=0;" edge="1" parent="1" source="DnV5-m6FtWE06OuVfOL7-5" target="z_w1RKRg0GO3UO0mCa1G-4">
          <mxGeometry relative="1" as="geometry">
            <mxPoint x="670" y="420" as="sourcePoint" />
          </mxGeometry>
        </mxCell>
        <mxCell id="z_w1RKRg0GO3UO0mCa1G-31" style="edgeStyle=orthogonalEdgeStyle;rounded=0;orthogonalLoop=1;jettySize=auto;html=1;exitX=0.5;exitY=0.5;exitDx=0;exitDy=0;exitPerimeter=0;entryX=1;entryY=0.5;entryDx=0;entryDy=0;" edge="1" parent="1" source="z_w1RKRg0GO3UO0mCa1G-28" target="z_w1RKRg0GO3UO0mCa1G-3">
          <mxGeometry relative="1" as="geometry" />
        </mxCell>
        <mxCell id="z_w1RKRg0GO3UO0mCa1G-28" value="Usuario&lt;div&gt;No Loggeado&lt;/div&gt;" style="shape=umlActor;verticalLabelPosition=bottom;verticalAlign=top;html=1;outlineConnect=0;rotation=0;" vertex="1" parent="1">
          <mxGeometry x="630" y="540" width="30" height="60" as="geometry" />
        </mxCell>
      </root>
    </mxGraphModel>
  </diagram>
  <diagram name="Page-1" id="o9p_EVdxi51Pj7pSrO-5">
    <mxGraphModel dx="910" dy="459" grid="1" gridSize="10" guides="1" tooltips="1" connect="1" arrows="1" fold="1" page="1" pageScale="1" pageWidth="850" pageHeight="1100" math="0" shadow="0">
      <root>
        <mxCell id="0" />
        <mxCell id="1" parent="0" />
        <mxCell id="0UfMdQEw2nPgkmCSFVaS-76" value="" style="endArrow=none;html=1;rounded=0;fontSize=12;startSize=8;endSize=8;curved=1;" parent="1" edge="1">
          <mxGeometry width="50" height="50" relative="1" as="geometry">
            <mxPoint x="500" y="640" as="sourcePoint" />
            <mxPoint x="680" y="640" as="targetPoint" />
          </mxGeometry>
        </mxCell>
        <mxCell id="UfTuCf3OS7GKTQSjwRax-10" value="" style="group" parent="1" vertex="1" connectable="0">
          <mxGeometry x="420" y="320" width="120.24000000000007" height="160" as="geometry" />
        </mxCell>
        <mxCell id="UfTuCf3OS7GKTQSjwRax-1" value="" style="rounded=1;whiteSpace=wrap;html=1;" parent="UfTuCf3OS7GKTQSjwRax-10" vertex="1">
          <mxGeometry width="120" height="160" as="geometry" />
        </mxCell>
        <mxCell id="UfTuCf3OS7GKTQSjwRax-2" value="" style="endArrow=none;html=1;rounded=0;" parent="UfTuCf3OS7GKTQSjwRax-10" target="UfTuCf3OS7GKTQSjwRax-1" edge="1">
          <mxGeometry width="50" height="50" relative="1" as="geometry">
            <mxPoint y="60" as="sourcePoint" />
            <mxPoint x="50" y="10" as="targetPoint" />
          </mxGeometry>
        </mxCell>
        <mxCell id="UfTuCf3OS7GKTQSjwRax-3" value="" style="endArrow=none;html=1;rounded=0;entryX=1.002;entryY=0.312;entryDx=0;entryDy=0;entryPerimeter=0;" parent="UfTuCf3OS7GKTQSjwRax-10" edge="1">
          <mxGeometry width="50" height="50" relative="1" as="geometry">
            <mxPoint y="30.08" as="sourcePoint" />
            <mxPoint x="120.24000000000007" y="30.000000000000014" as="targetPoint" />
          </mxGeometry>
        </mxCell>
        <mxCell id="UfTuCf3OS7GKTQSjwRax-8" value="" style="endArrow=none;html=1;rounded=0;entryX=1.002;entryY=0.312;entryDx=0;entryDy=0;entryPerimeter=0;" parent="UfTuCf3OS7GKTQSjwRax-10" edge="1">
          <mxGeometry width="50" height="50" relative="1" as="geometry">
            <mxPoint y="120" as="sourcePoint" />
            <mxPoint x="120" y="120" as="targetPoint" />
          </mxGeometry>
        </mxCell>
        <mxCell id="UfTuCf3OS7GKTQSjwRax-9" value="&lt;font style=&quot;font-size: 8px;&quot;&gt;Autor&lt;/font&gt;" style="text;html=1;align=center;verticalAlign=middle;whiteSpace=wrap;rounded=0;" parent="UfTuCf3OS7GKTQSjwRax-10" vertex="1">
          <mxGeometry x="30" width="60" height="30" as="geometry" />
        </mxCell>
        <mxCell id="UfTuCf3OS7GKTQSjwRax-11" value="&lt;font size=&quot;1&quot;&gt;-nombre: string&lt;/font&gt;&lt;div&gt;&lt;font size=&quot;1&quot;&gt;- nacionalidad: string&lt;/font&gt;&lt;/div&gt;&lt;div&gt;&lt;font size=&quot;1&quot;&gt;fechaNacimiento: Date&lt;/font&gt;&lt;/div&gt;" style="text;html=1;align=center;verticalAlign=middle;whiteSpace=wrap;rounded=0;" parent="UfTuCf3OS7GKTQSjwRax-10" vertex="1">
          <mxGeometry y="41" width="120" height="40" as="geometry" />
        </mxCell>
        <mxCell id="0UfMdQEw2nPgkmCSFVaS-37" value="&lt;font style=&quot;font-size: 8px;&quot;&gt;+MostrarDatos(): string&lt;/font&gt;" style="text;html=1;align=center;verticalAlign=middle;whiteSpace=wrap;rounded=0;fontSize=16;" parent="UfTuCf3OS7GKTQSjwRax-10" vertex="1">
          <mxGeometry x="10" y="120" width="94.94" height="30" as="geometry" />
        </mxCell>
        <mxCell id="0UfMdQEw2nPgkmCSFVaS-12" value="" style="group" parent="1" vertex="1" connectable="0">
          <mxGeometry x="120" y="100" width="120.24000000000007" height="160" as="geometry" />
        </mxCell>
        <mxCell id="0UfMdQEw2nPgkmCSFVaS-13" value="" style="rounded=1;whiteSpace=wrap;html=1;" parent="0UfMdQEw2nPgkmCSFVaS-12" vertex="1">
          <mxGeometry width="120" height="160" as="geometry" />
        </mxCell>
        <mxCell id="0UfMdQEw2nPgkmCSFVaS-14" value="" style="endArrow=none;html=1;rounded=0;" parent="0UfMdQEw2nPgkmCSFVaS-12" target="0UfMdQEw2nPgkmCSFVaS-13" edge="1">
          <mxGeometry width="50" height="50" relative="1" as="geometry">
            <mxPoint y="60" as="sourcePoint" />
            <mxPoint x="50" y="10" as="targetPoint" />
          </mxGeometry>
        </mxCell>
        <mxCell id="0UfMdQEw2nPgkmCSFVaS-15" value="" style="endArrow=none;html=1;rounded=0;entryX=1.002;entryY=0.312;entryDx=0;entryDy=0;entryPerimeter=0;" parent="0UfMdQEw2nPgkmCSFVaS-12" edge="1">
          <mxGeometry width="50" height="50" relative="1" as="geometry">
            <mxPoint y="30.08" as="sourcePoint" />
            <mxPoint x="120.24000000000007" y="30.000000000000014" as="targetPoint" />
          </mxGeometry>
        </mxCell>
        <mxCell id="0UfMdQEw2nPgkmCSFVaS-16" value="" style="endArrow=none;html=1;rounded=0;entryX=1.002;entryY=0.312;entryDx=0;entryDy=0;entryPerimeter=0;" parent="0UfMdQEw2nPgkmCSFVaS-12" edge="1">
          <mxGeometry width="50" height="50" relative="1" as="geometry">
            <mxPoint y="120" as="sourcePoint" />
            <mxPoint x="120" y="120" as="targetPoint" />
          </mxGeometry>
        </mxCell>
        <mxCell id="0UfMdQEw2nPgkmCSFVaS-17" value="&lt;span style=&quot;font-size: 8px;&quot;&gt;TipoLibro&lt;/span&gt;" style="text;html=1;align=center;verticalAlign=middle;whiteSpace=wrap;rounded=0;" parent="0UfMdQEw2nPgkmCSFVaS-12" vertex="1">
          <mxGeometry width="120" height="30" as="geometry" />
        </mxCell>
        <mxCell id="0UfMdQEw2nPgkmCSFVaS-18" value="&lt;div&gt;&lt;font size=&quot;1&quot;&gt;-tipo1: novela&lt;/font&gt;&lt;/div&gt;&lt;div&gt;&lt;font size=&quot;1&quot;&gt;-tipo2: teatro&lt;/font&gt;&lt;/div&gt;&lt;div&gt;&lt;font size=&quot;1&quot;&gt;-tipo3: poesia&lt;/font&gt;&lt;/div&gt;&lt;div&gt;&lt;font size=&quot;1&quot;&gt;-tipo4: ensayo&lt;/font&gt;&lt;/div&gt;" style="text;html=1;align=center;verticalAlign=middle;whiteSpace=wrap;rounded=0;" parent="0UfMdQEw2nPgkmCSFVaS-12" vertex="1">
          <mxGeometry y="50" width="120" height="40" as="geometry" />
        </mxCell>
        <mxCell id="0UfMdQEw2nPgkmCSFVaS-56" value="" style="group" parent="1" vertex="1" connectable="0">
          <mxGeometry x="120" y="770" width="120.24000000000007" height="160" as="geometry" />
        </mxCell>
        <mxCell id="0UfMdQEw2nPgkmCSFVaS-57" value="" style="rounded=1;whiteSpace=wrap;html=1;" parent="0UfMdQEw2nPgkmCSFVaS-56" vertex="1">
          <mxGeometry width="120" height="160" as="geometry" />
        </mxCell>
        <mxCell id="0UfMdQEw2nPgkmCSFVaS-58" value="" style="endArrow=none;html=1;rounded=0;" parent="0UfMdQEw2nPgkmCSFVaS-56" target="0UfMdQEw2nPgkmCSFVaS-57" edge="1">
          <mxGeometry width="50" height="50" relative="1" as="geometry">
            <mxPoint y="60" as="sourcePoint" />
            <mxPoint x="50" y="10" as="targetPoint" />
          </mxGeometry>
        </mxCell>
        <mxCell id="0UfMdQEw2nPgkmCSFVaS-59" value="" style="endArrow=none;html=1;rounded=0;entryX=1.002;entryY=0.312;entryDx=0;entryDy=0;entryPerimeter=0;" parent="0UfMdQEw2nPgkmCSFVaS-56" edge="1">
          <mxGeometry width="50" height="50" relative="1" as="geometry">
            <mxPoint y="30.08" as="sourcePoint" />
            <mxPoint x="120.24000000000007" y="30.000000000000014" as="targetPoint" />
          </mxGeometry>
        </mxCell>
        <mxCell id="0UfMdQEw2nPgkmCSFVaS-60" value="" style="endArrow=none;html=1;rounded=0;entryX=1.002;entryY=0.312;entryDx=0;entryDy=0;entryPerimeter=0;" parent="0UfMdQEw2nPgkmCSFVaS-56" edge="1">
          <mxGeometry width="50" height="50" relative="1" as="geometry">
            <mxPoint y="120" as="sourcePoint" />
            <mxPoint x="120" y="120" as="targetPoint" />
          </mxGeometry>
        </mxCell>
        <mxCell id="0UfMdQEw2nPgkmCSFVaS-61" value="&lt;font style=&quot;font-size: 8px;&quot;&gt;EstadoCopia&lt;/font&gt;" style="text;html=1;align=center;verticalAlign=middle;whiteSpace=wrap;rounded=0;" parent="0UfMdQEw2nPgkmCSFVaS-56" vertex="1">
          <mxGeometry x="30" width="60" height="30" as="geometry" />
        </mxCell>
        <mxCell id="0UfMdQEw2nPgkmCSFVaS-62" value="&lt;font size=&quot;1&quot;&gt;tipo1: bliblioteca&lt;/font&gt;&lt;div&gt;&lt;font size=&quot;1&quot;&gt;tipo2: prestado&lt;/font&gt;&lt;/div&gt;&lt;div&gt;&lt;font size=&quot;1&quot;&gt;tipo3: retraso&lt;/font&gt;&lt;/div&gt;&lt;div&gt;&lt;font size=&quot;1&quot;&gt;tipo4:reparacion&lt;/font&gt;&lt;/div&gt;" style="text;html=1;align=center;verticalAlign=middle;whiteSpace=wrap;rounded=0;" parent="0UfMdQEw2nPgkmCSFVaS-56" vertex="1">
          <mxGeometry y="50" width="120" height="40" as="geometry" />
        </mxCell>
        <mxCell id="0UfMdQEw2nPgkmCSFVaS-74" value="" style="group" parent="1" vertex="1" connectable="0">
          <mxGeometry x="380" y="559" width="121" height="161" as="geometry" />
        </mxCell>
        <mxCell id="0UfMdQEw2nPgkmCSFVaS-20" value="" style="rounded=1;whiteSpace=wrap;html=1;" parent="0UfMdQEw2nPgkmCSFVaS-74" vertex="1">
          <mxGeometry x="1" y="1" width="120" height="160" as="geometry" />
        </mxCell>
        <mxCell id="0UfMdQEw2nPgkmCSFVaS-21" value="" style="endArrow=none;html=1;rounded=0;" parent="0UfMdQEw2nPgkmCSFVaS-74" target="0UfMdQEw2nPgkmCSFVaS-20" edge="1">
          <mxGeometry width="50" height="50" relative="1" as="geometry">
            <mxPoint y="60" as="sourcePoint" />
            <mxPoint x="50" y="10" as="targetPoint" />
          </mxGeometry>
        </mxCell>
        <mxCell id="0UfMdQEw2nPgkmCSFVaS-22" value="" style="endArrow=none;html=1;rounded=0;entryX=1.002;entryY=0.312;entryDx=0;entryDy=0;entryPerimeter=0;" parent="0UfMdQEw2nPgkmCSFVaS-74" edge="1">
          <mxGeometry width="50" height="50" relative="1" as="geometry">
            <mxPoint y="30.08000000000004" as="sourcePoint" />
            <mxPoint x="120.24000000000007" y="30" as="targetPoint" />
          </mxGeometry>
        </mxCell>
        <mxCell id="0UfMdQEw2nPgkmCSFVaS-23" value="" style="endArrow=none;html=1;rounded=0;entryX=1.002;entryY=0.312;entryDx=0;entryDy=0;entryPerimeter=0;" parent="0UfMdQEw2nPgkmCSFVaS-74" edge="1">
          <mxGeometry width="50" height="50" relative="1" as="geometry">
            <mxPoint y="120" as="sourcePoint" />
            <mxPoint x="120" y="120" as="targetPoint" />
          </mxGeometry>
        </mxCell>
        <mxCell id="0UfMdQEw2nPgkmCSFVaS-24" value="&lt;span style=&quot;font-size: 8px;&quot;&gt;Prestamo&lt;/span&gt;" style="text;html=1;align=center;verticalAlign=middle;whiteSpace=wrap;rounded=0;" parent="0UfMdQEw2nPgkmCSFVaS-74" vertex="1">
          <mxGeometry width="120" height="30" as="geometry" />
        </mxCell>
        <mxCell id="0UfMdQEw2nPgkmCSFVaS-25" value="&lt;font size=&quot;1&quot;&gt;-fechaInicio: Date&lt;/font&gt;&lt;div&gt;&lt;font size=&quot;1&quot;&gt;-fechaDevolucion: Date&lt;/font&gt;&lt;/div&gt;" style="text;html=1;align=center;verticalAlign=middle;whiteSpace=wrap;rounded=0;" parent="0UfMdQEw2nPgkmCSFVaS-74" vertex="1">
          <mxGeometry x="0.2400000000000091" y="30" width="120" height="60" as="geometry" />
        </mxCell>
        <mxCell id="0UfMdQEw2nPgkmCSFVaS-75" value="" style="group" parent="1" vertex="1" connectable="0">
          <mxGeometry x="680" y="560" width="120.24000000000001" height="160" as="geometry" />
        </mxCell>
        <mxCell id="0UfMdQEw2nPgkmCSFVaS-64" style="edgeStyle=none;curved=1;rounded=0;orthogonalLoop=1;jettySize=auto;html=1;entryX=0;entryY=0;entryDx=0;entryDy=0;fontSize=12;startSize=8;endSize=8;" parent="0UfMdQEw2nPgkmCSFVaS-75" edge="1">
          <mxGeometry relative="1" as="geometry">
            <mxPoint x="95.24000000000001" y="130" as="sourcePoint" />
            <mxPoint x="95.24000000000001" y="130" as="targetPoint" />
          </mxGeometry>
        </mxCell>
        <mxCell id="0UfMdQEw2nPgkmCSFVaS-66" value="" style="rounded=1;whiteSpace=wrap;html=1;" parent="0UfMdQEw2nPgkmCSFVaS-75" vertex="1">
          <mxGeometry width="120" height="160" as="geometry" />
        </mxCell>
        <mxCell id="0UfMdQEw2nPgkmCSFVaS-67" value="" style="endArrow=none;html=1;rounded=0;" parent="0UfMdQEw2nPgkmCSFVaS-75" target="0UfMdQEw2nPgkmCSFVaS-66" edge="1">
          <mxGeometry width="50" height="50" relative="1" as="geometry">
            <mxPoint y="60" as="sourcePoint" />
            <mxPoint x="50" y="10" as="targetPoint" />
          </mxGeometry>
        </mxCell>
        <mxCell id="0UfMdQEw2nPgkmCSFVaS-68" value="" style="endArrow=none;html=1;rounded=0;entryX=1.002;entryY=0.312;entryDx=0;entryDy=0;entryPerimeter=0;" parent="0UfMdQEw2nPgkmCSFVaS-75" edge="1">
          <mxGeometry width="50" height="50" relative="1" as="geometry">
            <mxPoint y="30.08000000000004" as="sourcePoint" />
            <mxPoint x="120.24000000000001" y="30" as="targetPoint" />
          </mxGeometry>
        </mxCell>
        <mxCell id="0UfMdQEw2nPgkmCSFVaS-69" value="" style="endArrow=none;html=1;rounded=0;entryX=1.002;entryY=0.312;entryDx=0;entryDy=0;entryPerimeter=0;" parent="0UfMdQEw2nPgkmCSFVaS-75" edge="1">
          <mxGeometry width="50" height="50" relative="1" as="geometry">
            <mxPoint y="120" as="sourcePoint" />
            <mxPoint x="120" y="120" as="targetPoint" />
          </mxGeometry>
        </mxCell>
        <mxCell id="0UfMdQEw2nPgkmCSFVaS-70" value="&lt;font style=&quot;font-size: 8px;&quot;&gt;Lectores&lt;/font&gt;" style="text;html=1;align=center;verticalAlign=middle;whiteSpace=wrap;rounded=0;" parent="0UfMdQEw2nPgkmCSFVaS-75" vertex="1">
          <mxGeometry x="30" width="60" height="30" as="geometry" />
        </mxCell>
        <mxCell id="0UfMdQEw2nPgkmCSFVaS-71" value="&lt;font size=&quot;1&quot;&gt;-numSocio: int&lt;/font&gt;&lt;div&gt;&lt;font size=&quot;1&quot;&gt;-nombre: string&lt;/font&gt;&lt;/div&gt;&lt;div&gt;&lt;font size=&quot;1&quot;&gt;-telefono: string&lt;/font&gt;&lt;/div&gt;&lt;div&gt;&lt;font size=&quot;1&quot;&gt;-direccion: string&lt;/font&gt;&lt;/div&gt;" style="text;html=1;align=center;verticalAlign=middle;whiteSpace=wrap;rounded=0;" parent="0UfMdQEw2nPgkmCSFVaS-75" vertex="1">
          <mxGeometry y="41" width="120" height="40" as="geometry" />
        </mxCell>
        <mxCell id="0UfMdQEw2nPgkmCSFVaS-88" value="" style="rhombus;whiteSpace=wrap;html=1;fillColor=#f8cecc;strokeColor=#b85450;" parent="0UfMdQEw2nPgkmCSFVaS-75" vertex="1">
          <mxGeometry x="-20" y="60.5" width="40" height="39" as="geometry" />
        </mxCell>
        <mxCell id="6HRYTmLF2GMswpSqAz99-12" value="&lt;font style=&quot;font-size: 8px;&quot;&gt;+RealizarPrestamo(): void&lt;/font&gt;" style="text;html=1;align=center;verticalAlign=middle;whiteSpace=wrap;rounded=0;fontSize=16;" parent="0UfMdQEw2nPgkmCSFVaS-75" vertex="1">
          <mxGeometry y="120" width="120" height="30" as="geometry" />
        </mxCell>
        <mxCell id="0UfMdQEw2nPgkmCSFVaS-85" value="Realiza" style="text;html=1;align=center;verticalAlign=middle;whiteSpace=wrap;rounded=0;fontSize=16;" parent="1" vertex="1">
          <mxGeometry x="560" y="611" width="60" height="30" as="geometry" />
        </mxCell>
        <mxCell id="0UfMdQEw2nPgkmCSFVaS-86" value="0: N (3???)" style="text;html=1;align=center;verticalAlign=middle;whiteSpace=wrap;rounded=0;fontSize=16;" parent="1" vertex="1">
          <mxGeometry x="510" y="650" width="60" height="30" as="geometry" />
        </mxCell>
        <mxCell id="0UfMdQEw2nPgkmCSFVaS-87" value="1:1" style="text;html=1;align=center;verticalAlign=middle;whiteSpace=wrap;rounded=0;fontSize=16;" parent="1" vertex="1">
          <mxGeometry x="620" y="650" width="60" height="30" as="geometry" />
        </mxCell>
        <mxCell id="0UfMdQEw2nPgkmCSFVaS-90" value="" style="group" parent="1" vertex="1" connectable="0">
          <mxGeometry x="119.76" y="559" width="120.24000000000007" height="160" as="geometry" />
        </mxCell>
        <mxCell id="0UfMdQEw2nPgkmCSFVaS-6" style="edgeStyle=none;curved=1;rounded=0;orthogonalLoop=1;jettySize=auto;html=1;entryX=0;entryY=0;entryDx=0;entryDy=0;fontSize=12;startSize=8;endSize=8;" parent="0UfMdQEw2nPgkmCSFVaS-90" edge="1">
          <mxGeometry relative="1" as="geometry">
            <mxPoint x="95.24000000000001" y="140" as="sourcePoint" />
            <mxPoint x="95.24000000000001" y="140" as="targetPoint" />
          </mxGeometry>
        </mxCell>
        <mxCell id="0UfMdQEw2nPgkmCSFVaS-46" value="" style="group" parent="0UfMdQEw2nPgkmCSFVaS-90" vertex="1" connectable="0">
          <mxGeometry width="120.24000000000007" height="160" as="geometry" />
        </mxCell>
        <mxCell id="0UfMdQEw2nPgkmCSFVaS-47" value="" style="rounded=1;whiteSpace=wrap;html=1;" parent="0UfMdQEw2nPgkmCSFVaS-46" vertex="1">
          <mxGeometry width="120" height="160" as="geometry" />
        </mxCell>
        <mxCell id="0UfMdQEw2nPgkmCSFVaS-48" value="" style="endArrow=none;html=1;rounded=0;" parent="0UfMdQEw2nPgkmCSFVaS-46" target="0UfMdQEw2nPgkmCSFVaS-47" edge="1">
          <mxGeometry width="50" height="50" relative="1" as="geometry">
            <mxPoint y="60" as="sourcePoint" />
            <mxPoint x="50" y="10" as="targetPoint" />
          </mxGeometry>
        </mxCell>
        <mxCell id="0UfMdQEw2nPgkmCSFVaS-49" value="" style="endArrow=none;html=1;rounded=0;entryX=1.002;entryY=0.312;entryDx=0;entryDy=0;entryPerimeter=0;" parent="0UfMdQEw2nPgkmCSFVaS-46" edge="1">
          <mxGeometry width="50" height="50" relative="1" as="geometry">
            <mxPoint y="30.08" as="sourcePoint" />
            <mxPoint x="120.24000000000007" y="30.000000000000014" as="targetPoint" />
          </mxGeometry>
        </mxCell>
        <mxCell id="0UfMdQEw2nPgkmCSFVaS-50" value="" style="endArrow=none;html=1;rounded=0;entryX=1.002;entryY=0.312;entryDx=0;entryDy=0;entryPerimeter=0;" parent="0UfMdQEw2nPgkmCSFVaS-46" edge="1">
          <mxGeometry width="50" height="50" relative="1" as="geometry">
            <mxPoint y="120" as="sourcePoint" />
            <mxPoint x="120" y="120" as="targetPoint" />
          </mxGeometry>
        </mxCell>
        <mxCell id="0UfMdQEw2nPgkmCSFVaS-51" value="&lt;font style=&quot;font-size: 8px;&quot;&gt;Copia&lt;/font&gt;" style="text;html=1;align=center;verticalAlign=middle;whiteSpace=wrap;rounded=0;" parent="0UfMdQEw2nPgkmCSFVaS-46" vertex="1">
          <mxGeometry x="30" width="60" height="30" as="geometry" />
        </mxCell>
        <mxCell id="0UfMdQEw2nPgkmCSFVaS-52" value="&lt;font size=&quot;1&quot;&gt;-idCopia: int&lt;/font&gt;&lt;div&gt;&lt;font size=&quot;1&quot;&gt;-Estado: EstadoCopia&lt;/font&gt;&lt;/div&gt;" style="text;html=1;align=center;verticalAlign=middle;whiteSpace=wrap;rounded=0;" parent="0UfMdQEw2nPgkmCSFVaS-46" vertex="1">
          <mxGeometry y="41" width="120" height="40" as="geometry" />
        </mxCell>
        <mxCell id="0UfMdQEw2nPgkmCSFVaS-91" value="" style="endArrow=none;html=1;rounded=0;fontSize=12;startSize=8;endSize=8;curved=1;entryX=0.004;entryY=0.836;entryDx=0;entryDy=0;entryPerimeter=0;" parent="1" target="0UfMdQEw2nPgkmCSFVaS-25" edge="1">
          <mxGeometry width="50" height="50" relative="1" as="geometry">
            <mxPoint x="240" y="640" as="sourcePoint" />
            <mxPoint x="370" y="590" as="targetPoint" />
          </mxGeometry>
        </mxCell>
        <mxCell id="0UfMdQEw2nPgkmCSFVaS-92" value="Tiene" style="text;html=1;align=center;verticalAlign=middle;whiteSpace=wrap;rounded=0;fontSize=16;" parent="1" vertex="1">
          <mxGeometry x="280" y="611" width="60" height="30" as="geometry" />
        </mxCell>
        <mxCell id="0UfMdQEw2nPgkmCSFVaS-93" value="1:1" style="text;html=1;align=center;verticalAlign=middle;whiteSpace=wrap;rounded=0;fontSize=16;" parent="1" vertex="1">
          <mxGeometry x="330" y="641" width="60" height="30" as="geometry" />
        </mxCell>
        <mxCell id="0UfMdQEw2nPgkmCSFVaS-94" value="1:1" style="text;html=1;align=center;verticalAlign=middle;whiteSpace=wrap;rounded=0;fontSize=16;" parent="1" vertex="1">
          <mxGeometry x="230" y="641" width="60" height="30" as="geometry" />
        </mxCell>
        <mxCell id="6HRYTmLF2GMswpSqAz99-1" value="" style="endArrow=none;html=1;rounded=0;fontSize=12;startSize=8;endSize=8;curved=1;entryX=0.5;entryY=1;entryDx=0;entryDy=0;exitX=0.5;exitY=0;exitDx=0;exitDy=0;" parent="1" source="0UfMdQEw2nPgkmCSFVaS-61" target="0UfMdQEw2nPgkmCSFVaS-47" edge="1">
          <mxGeometry width="50" height="50" relative="1" as="geometry">
            <mxPoint x="150" y="770" as="sourcePoint" />
            <mxPoint x="200" y="720" as="targetPoint" />
          </mxGeometry>
        </mxCell>
        <mxCell id="6HRYTmLF2GMswpSqAz99-2" value="" style="group" parent="1" vertex="1" connectable="0">
          <mxGeometry x="120" y="320" width="180" height="160" as="geometry" />
        </mxCell>
        <mxCell id="UfTuCf3OS7GKTQSjwRax-13" value="" style="rounded=1;whiteSpace=wrap;html=1;" parent="6HRYTmLF2GMswpSqAz99-2" vertex="1">
          <mxGeometry width="120" height="160" as="geometry" />
        </mxCell>
        <mxCell id="UfTuCf3OS7GKTQSjwRax-14" value="" style="endArrow=none;html=1;rounded=0;" parent="6HRYTmLF2GMswpSqAz99-2" target="UfTuCf3OS7GKTQSjwRax-13" edge="1">
          <mxGeometry width="50" height="50" relative="1" as="geometry">
            <mxPoint y="60" as="sourcePoint" />
            <mxPoint x="50" y="10" as="targetPoint" />
          </mxGeometry>
        </mxCell>
        <mxCell id="UfTuCf3OS7GKTQSjwRax-15" value="" style="endArrow=none;html=1;rounded=0;entryX=1.002;entryY=0.312;entryDx=0;entryDy=0;entryPerimeter=0;" parent="6HRYTmLF2GMswpSqAz99-2" edge="1">
          <mxGeometry width="50" height="50" relative="1" as="geometry">
            <mxPoint y="30.079999999999984" as="sourcePoint" />
            <mxPoint x="120.24000000000001" y="30" as="targetPoint" />
          </mxGeometry>
        </mxCell>
        <mxCell id="UfTuCf3OS7GKTQSjwRax-16" value="" style="endArrow=none;html=1;rounded=0;entryX=1.002;entryY=0.312;entryDx=0;entryDy=0;entryPerimeter=0;" parent="6HRYTmLF2GMswpSqAz99-2" edge="1">
          <mxGeometry width="50" height="50" relative="1" as="geometry">
            <mxPoint y="120" as="sourcePoint" />
            <mxPoint x="120" y="120" as="targetPoint" />
          </mxGeometry>
        </mxCell>
        <mxCell id="UfTuCf3OS7GKTQSjwRax-17" value="&lt;span style=&quot;font-size: 8px;&quot;&gt;Libro&lt;/span&gt;" style="text;html=1;align=center;verticalAlign=middle;whiteSpace=wrap;rounded=0;" parent="6HRYTmLF2GMswpSqAz99-2" vertex="1">
          <mxGeometry width="120" height="30" as="geometry" />
        </mxCell>
        <mxCell id="UfTuCf3OS7GKTQSjwRax-18" value="&lt;div style=&quot;font-size: 11px;&quot;&gt;-nombre: string&lt;/div&gt;&lt;div style=&quot;font-size: 11px;&quot;&gt;-tipo: TipoLibro&lt;/div&gt;&lt;div style=&quot;font-size: 11px;&quot;&gt;-editorial: string&lt;/div&gt;&lt;div style=&quot;font-size: 11px;&quot;&gt;-aÃ±o: int&lt;/div&gt;&lt;div style=&quot;font-size: 11px;&quot;&gt;-autor: Autor&lt;/div&gt;" style="text;html=1;align=center;verticalAlign=middle;whiteSpace=wrap;rounded=0;" parent="6HRYTmLF2GMswpSqAz99-2" vertex="1">
          <mxGeometry y="50" width="120" height="40" as="geometry" />
        </mxCell>
        <mxCell id="6HRYTmLF2GMswpSqAz99-10" value="1:N" style="text;html=1;align=center;verticalAlign=middle;whiteSpace=wrap;rounded=0;fontSize=16;" parent="6HRYTmLF2GMswpSqAz99-2" vertex="1">
          <mxGeometry x="120" y="85" width="60" height="30" as="geometry" />
        </mxCell>
        <mxCell id="6HRYTmLF2GMswpSqAz99-3" value="" style="endArrow=none;html=1;rounded=0;fontSize=12;startSize=8;endSize=8;curved=1;entryX=0.5;entryY=1;entryDx=0;entryDy=0;exitX=0.5;exitY=0;exitDx=0;exitDy=0;" parent="1" source="0UfMdQEw2nPgkmCSFVaS-51" target="UfTuCf3OS7GKTQSjwRax-13" edge="1">
          <mxGeometry width="50" height="50" relative="1" as="geometry">
            <mxPoint x="160" y="540" as="sourcePoint" />
            <mxPoint x="210" y="490" as="targetPoint" />
          </mxGeometry>
        </mxCell>
        <mxCell id="6HRYTmLF2GMswpSqAz99-4" value="Tiene" style="text;html=1;align=center;verticalAlign=middle;whiteSpace=wrap;rounded=0;fontSize=16;rotation=90;" parent="1" vertex="1">
          <mxGeometry x="170" y="499" width="60" height="30" as="geometry" />
        </mxCell>
        <mxCell id="6HRYTmLF2GMswpSqAz99-5" value="1:1" style="text;html=1;align=center;verticalAlign=middle;whiteSpace=wrap;rounded=0;fontSize=16;" parent="1" vertex="1">
          <mxGeometry x="130" y="480" width="60" height="30" as="geometry" />
        </mxCell>
        <mxCell id="6HRYTmLF2GMswpSqAz99-6" value="1:N" style="text;html=1;align=center;verticalAlign=middle;whiteSpace=wrap;rounded=0;fontSize=16;" parent="1" vertex="1">
          <mxGeometry x="130" y="529" width="60" height="30" as="geometry" />
        </mxCell>
        <mxCell id="6HRYTmLF2GMswpSqAz99-7" value="" style="endArrow=none;html=1;rounded=0;fontSize=12;startSize=8;endSize=8;curved=1;exitX=0.5;exitY=0;exitDx=0;exitDy=0;" parent="1" source="UfTuCf3OS7GKTQSjwRax-17" edge="1">
          <mxGeometry width="50" height="50" relative="1" as="geometry">
            <mxPoint x="240" y="340" as="sourcePoint" />
            <mxPoint x="180" y="260" as="targetPoint" />
          </mxGeometry>
        </mxCell>
        <mxCell id="6HRYTmLF2GMswpSqAz99-8" value="" style="endArrow=none;html=1;rounded=0;fontSize=12;startSize=8;endSize=8;curved=1;" parent="1" edge="1">
          <mxGeometry width="50" height="50" relative="1" as="geometry">
            <mxPoint x="240" y="400" as="sourcePoint" />
            <mxPoint x="420" y="400" as="targetPoint" />
          </mxGeometry>
        </mxCell>
        <mxCell id="6HRYTmLF2GMswpSqAz99-9" value="Escribe" style="text;html=1;align=center;verticalAlign=middle;whiteSpace=wrap;rounded=0;fontSize=16;" parent="1" vertex="1">
          <mxGeometry x="290" y="375" width="60" height="30" as="geometry" />
        </mxCell>
        <mxCell id="6HRYTmLF2GMswpSqAz99-11" value="1:N" style="text;html=1;align=center;verticalAlign=middle;whiteSpace=wrap;rounded=0;fontSize=16;" parent="1" vertex="1">
          <mxGeometry x="360" y="405" width="60" height="30" as="geometry" />
        </mxCell>
      </root>
    </mxGraphModel>
  </diagram>
  <diagram name="Page-2" id="hj0fP0YdIhDPjuqj04WB">
    <mxGraphModel dx="1150" dy="509" grid="0" gridSize="10" guides="1" tooltips="1" connect="1" arrows="1" fold="1" page="0" pageScale="1" pageWidth="850" pageHeight="1100" math="0" shadow="0">
      <root>
        <mxCell id="0" />
        <mxCell id="1" parent="0" />
        <mxCell id="eLIHctDLw3GJHYmIPz8b-1" value="" style="group" vertex="1" connectable="0" parent="1">
          <mxGeometry x="50" y="30" width="760" height="570" as="geometry" />
        </mxCell>
        <mxCell id="eLIHctDLw3GJHYmIPz8b-2" value="" style="group" vertex="1" connectable="0" parent="eLIHctDLw3GJHYmIPz8b-1">
          <mxGeometry width="198.65739130434784" height="213.75" as="geometry" />
        </mxCell>
        <mxCell id="eLIHctDLw3GJHYmIPz8b-3" value="" style="whiteSpace=wrap;html=1;aspect=fixed;" vertex="1" parent="eLIHctDLw3GJHYmIPz8b-2">
          <mxGeometry width="198.2608695652174" height="198.2608695652174" as="geometry" />
        </mxCell>
        <mxCell id="eLIHctDLw3GJHYmIPz8b-4" value="" style="endArrow=none;html=1;rounded=0;exitX=0;exitY=0.333;exitDx=0;exitDy=0;exitPerimeter=0;entryX=1.002;entryY=0.336;entryDx=0;entryDy=0;entryPerimeter=0;" edge="1" parent="eLIHctDLw3GJHYmIPz8b-2">
          <mxGeometry width="50" height="50" relative="1" as="geometry">
            <mxPoint y="47.50000000000007" as="sourcePoint" />
            <mxPoint x="198.65739130434784" y="48.14125000000003" as="targetPoint" />
          </mxGeometry>
        </mxCell>
        <mxCell id="eLIHctDLw3GJHYmIPz8b-5" value="" style="endArrow=none;html=1;rounded=0;exitX=0;exitY=0.333;exitDx=0;exitDy=0;exitPerimeter=0;entryX=1.002;entryY=0.336;entryDx=0;entryDy=0;entryPerimeter=0;" edge="1" parent="eLIHctDLw3GJHYmIPz8b-2">
          <mxGeometry width="50" height="50" relative="1" as="geometry">
            <mxPoint y="154.375" as="sourcePoint" />
            <mxPoint x="198.2608695652174" y="154.375" as="targetPoint" />
          </mxGeometry>
        </mxCell>
        <mxCell id="eLIHctDLw3GJHYmIPz8b-6" value="Cliente" style="text;html=1;align=center;verticalAlign=middle;whiteSpace=wrap;rounded=0;" vertex="1" parent="eLIHctDLw3GJHYmIPz8b-2">
          <mxGeometry x="66.08695652173913" y="11.875" width="66.08695652173913" height="35.625" as="geometry" />
        </mxCell>
        <mxCell id="eLIHctDLw3GJHYmIPz8b-7" value="- nombre: string&lt;div&gt;-dni: string&lt;/div&gt;&lt;div&gt;-direccion: string&lt;/div&gt;&lt;div&gt;-edad: int&lt;/div&gt;" style="text;html=1;align=center;verticalAlign=middle;whiteSpace=wrap;rounded=0;" vertex="1" parent="eLIHctDLw3GJHYmIPz8b-2">
          <mxGeometry y="83.125" width="198.2608695652174" height="35.625" as="geometry" />
        </mxCell>
        <mxCell id="eLIHctDLw3GJHYmIPz8b-8" value="" style="rounded=0;whiteSpace=wrap;html=1;" vertex="1" parent="eLIHctDLw3GJHYmIPz8b-1">
          <mxGeometry x="277.87362318840576" y="332.5" width="187.24637681159422" height="237.5" as="geometry" />
        </mxCell>
        <mxCell id="eLIHctDLw3GJHYmIPz8b-9" value="" style="endArrow=none;html=1;rounded=0;entryX=1.032;entryY=0.295;entryDx=0;entryDy=0;entryPerimeter=0;" edge="1" parent="eLIHctDLw3GJHYmIPz8b-1">
          <mxGeometry width="50" height="50" relative="1" as="geometry">
            <mxPoint x="277.87362318840576" y="393.0625" as="sourcePoint" />
            <mxPoint x="471.11188405797105" y="391.875" as="targetPoint" />
          </mxGeometry>
        </mxCell>
        <mxCell id="eLIHctDLw3GJHYmIPz8b-10" value="Sucursales" style="text;html=1;align=center;verticalAlign=middle;whiteSpace=wrap;rounded=0;" vertex="1" parent="eLIHctDLw3GJHYmIPz8b-1">
          <mxGeometry x="338.4533333333333" y="344.375" width="66.08695652173913" height="35.625" as="geometry" />
        </mxCell>
        <mxCell id="eLIHctDLw3GJHYmIPz8b-11" value="-numeroSucursal: int&lt;div&gt;-direccion: string&lt;/div&gt;&lt;div&gt;-telefono: string&lt;/div&gt;" style="text;html=1;align=center;verticalAlign=middle;whiteSpace=wrap;rounded=0;" vertex="1" parent="eLIHctDLw3GJHYmIPz8b-1">
          <mxGeometry x="289.2846376811594" y="403.75" width="164.82086956521738" height="71.25" as="geometry" />
        </mxCell>
        <mxCell id="eLIHctDLw3GJHYmIPz8b-12" value="" style="endArrow=none;html=1;rounded=0;entryX=1;entryY=0.75;entryDx=0;entryDy=0;" edge="1" parent="eLIHctDLw3GJHYmIPz8b-1">
          <mxGeometry width="50" height="50" relative="1" as="geometry">
            <mxPoint x="277.87362318840576" y="486.875" as="sourcePoint" />
            <mxPoint x="465.11999999999995" y="486.875" as="targetPoint" />
          </mxGeometry>
        </mxCell>
        <mxCell id="eLIHctDLw3GJHYmIPz8b-13" value="" style="endArrow=none;html=1;rounded=0;exitX=1;exitY=0.5;exitDx=0;exitDy=0;" edge="1" parent="eLIHctDLw3GJHYmIPz8b-1" source="eLIHctDLw3GJHYmIPz8b-7">
          <mxGeometry width="50" height="50" relative="1" as="geometry">
            <mxPoint x="209.2753623188406" y="237.5" as="sourcePoint" />
            <mxPoint x="286.3768115942029" y="100.9375" as="targetPoint" />
            <Array as="points" />
          </mxGeometry>
        </mxCell>
        <mxCell id="eLIHctDLw3GJHYmIPz8b-14" value="&lt;font style=&quot;font-size: 8px;&quot;&gt;1:1&lt;/font&gt;" style="text;html=1;align=center;verticalAlign=middle;whiteSpace=wrap;rounded=0;" vertex="1" parent="eLIHctDLw3GJHYmIPz8b-1">
          <mxGeometry x="176.231884057971" y="71.25" width="66.08695652173913" height="35.625" as="geometry" />
        </mxCell>
        <mxCell id="eLIHctDLw3GJHYmIPz8b-15" value="" style="endArrow=none;html=1;rounded=0;entryX=0.531;entryY=1.014;entryDx=0;entryDy=0;entryPerimeter=0;exitX=0.549;exitY=0.005;exitDx=0;exitDy=0;exitPerimeter=0;" edge="1" parent="eLIHctDLw3GJHYmIPz8b-1" source="eLIHctDLw3GJHYmIPz8b-8" target="eLIHctDLw3GJHYmIPz8b-18">
          <mxGeometry width="50" height="50" relative="1" as="geometry">
            <mxPoint x="341.4492753623188" y="285" as="sourcePoint" />
            <mxPoint x="396.5217391304348" y="225.625" as="targetPoint" />
          </mxGeometry>
        </mxCell>
        <mxCell id="eLIHctDLw3GJHYmIPz8b-16" value="&lt;font style=&quot;font-size: 8px;&quot;&gt;1:1&lt;/font&gt;" style="text;html=1;align=center;verticalAlign=middle;whiteSpace=wrap;rounded=0;" vertex="1" parent="eLIHctDLw3GJHYmIPz8b-1">
          <mxGeometry x="363.47826086956525" y="296.875" width="66.08695652173913" height="35.625" as="geometry" />
        </mxCell>
        <mxCell id="eLIHctDLw3GJHYmIPz8b-17" value="&lt;font style=&quot;font-size: 8px;&quot;&gt;0:N&lt;/font&gt;" style="text;html=1;align=center;verticalAlign=middle;whiteSpace=wrap;rounded=0;" vertex="1" parent="eLIHctDLw3GJHYmIPz8b-1">
          <mxGeometry x="363.47826086956525" y="213.75" width="66.08695652173913" height="35.625" as="geometry" />
        </mxCell>
        <mxCell id="eLIHctDLw3GJHYmIPz8b-18" value="" style="rounded=0;whiteSpace=wrap;html=1;" vertex="1" parent="eLIHctDLw3GJHYmIPz8b-1">
          <mxGeometry x="286.3768115942029" width="176.231884057971" height="213.75" as="geometry" />
        </mxCell>
        <mxCell id="eLIHctDLw3GJHYmIPz8b-19" value="" style="endArrow=none;html=1;rounded=0;exitX=0;exitY=0.25;exitDx=0;exitDy=0;entryX=1;entryY=0.25;entryDx=0;entryDy=0;" edge="1" parent="eLIHctDLw3GJHYmIPz8b-1" source="eLIHctDLw3GJHYmIPz8b-18" target="eLIHctDLw3GJHYmIPz8b-18">
          <mxGeometry width="50" height="50" relative="1" as="geometry">
            <mxPoint x="330.4347826086956" y="106.875" as="sourcePoint" />
            <mxPoint x="473.6231884057971" y="61.75" as="targetPoint" />
          </mxGeometry>
        </mxCell>
        <mxCell id="eLIHctDLw3GJHYmIPz8b-20" value="" style="endArrow=none;html=1;rounded=0;exitX=0;exitY=0.25;exitDx=0;exitDy=0;entryX=1;entryY=0.25;entryDx=0;entryDy=0;" edge="1" parent="eLIHctDLw3GJHYmIPz8b-1">
          <mxGeometry width="50" height="50" relative="1" as="geometry">
            <mxPoint x="286.3768115942029" y="106.53062500000001" as="sourcePoint" />
            <mxPoint x="462.60869565217394" y="106.53062500000001" as="targetPoint" />
          </mxGeometry>
        </mxCell>
        <mxCell id="eLIHctDLw3GJHYmIPz8b-21" value="Cuenta" style="text;html=1;align=center;verticalAlign=middle;whiteSpace=wrap;rounded=0;" vertex="1" parent="eLIHctDLw3GJHYmIPz8b-1">
          <mxGeometry x="324.92753623188406" y="11.875" width="99.1304347826087" height="35.625" as="geometry" />
        </mxCell>
        <mxCell id="eLIHctDLw3GJHYmIPz8b-22" value="&lt;div&gt;-numeroCuenta&lt;/div&gt;-saldo: double" style="text;html=1;align=center;verticalAlign=middle;whiteSpace=wrap;rounded=0;" vertex="1" parent="eLIHctDLw3GJHYmIPz8b-1">
          <mxGeometry x="275.3623188405797" y="59.375" width="198.2608695652174" height="35.625" as="geometry" />
        </mxCell>
        <mxCell id="eLIHctDLw3GJHYmIPz8b-23" value="&lt;font style=&quot;font-size: 8px;&quot;&gt;+ ConsultarSaldo(): double&lt;/font&gt;&lt;div style=&quot;font-size: 8px;&quot;&gt;&lt;font style=&quot;font-size: 8px;&quot;&gt;+ RealizarAportacion(): void&lt;/font&gt;&lt;/div&gt;&lt;div style=&quot;font-size: 8px;&quot;&gt;&lt;font style=&quot;font-size: 8px;&quot;&gt;+ RealizarReintegro(): void&lt;/font&gt;&lt;/div&gt;" style="text;html=1;align=center;verticalAlign=middle;whiteSpace=wrap;rounded=0;" vertex="1" parent="eLIHctDLw3GJHYmIPz8b-1">
          <mxGeometry x="311.11536231884054" y="95" width="121.15942028985508" height="130.625" as="geometry" />
        </mxCell>
        <mxCell id="eLIHctDLw3GJHYmIPz8b-24" value="&lt;font style=&quot;font-size: 8px;&quot;&gt;0:N&lt;/font&gt;" style="text;html=1;align=center;verticalAlign=middle;whiteSpace=wrap;rounded=0;fontSize=6;" vertex="1" parent="eLIHctDLw3GJHYmIPz8b-1">
          <mxGeometry x="242.31884057971016" y="71.25" width="66.08695652173913" height="35.625" as="geometry" />
        </mxCell>
        <mxCell id="eLIHctDLw3GJHYmIPz8b-25" style="edgeStyle=orthogonalEdgeStyle;rounded=0;orthogonalLoop=1;jettySize=auto;html=1;exitX=0;exitY=0.5;exitDx=0;exitDy=0;entryX=1;entryY=0.5;entryDx=0;entryDy=0;endArrow=none;endFill=0;" edge="1" parent="eLIHctDLw3GJHYmIPz8b-1" source="eLIHctDLw3GJHYmIPz8b-26" target="eLIHctDLw3GJHYmIPz8b-18">
          <mxGeometry relative="1" as="geometry" />
        </mxCell>
        <mxCell id="eLIHctDLw3GJHYmIPz8b-26" value="" style="rounded=0;whiteSpace=wrap;html=1;" vertex="1" parent="eLIHctDLw3GJHYmIPz8b-1">
          <mxGeometry x="583.768115942029" width="176.231884057971" height="213.75" as="geometry" />
        </mxCell>
        <mxCell id="eLIHctDLw3GJHYmIPz8b-27" value="" style="endArrow=none;html=1;rounded=0;exitX=0;exitY=0.25;exitDx=0;exitDy=0;entryX=1;entryY=0.25;entryDx=0;entryDy=0;" edge="1" parent="eLIHctDLw3GJHYmIPz8b-1" source="eLIHctDLw3GJHYmIPz8b-26" target="eLIHctDLw3GJHYmIPz8b-26">
          <mxGeometry width="50" height="50" relative="1" as="geometry">
            <mxPoint x="649.8550724637681" y="95" as="sourcePoint" />
            <mxPoint x="704.927536231884" y="35.625" as="targetPoint" />
          </mxGeometry>
        </mxCell>
        <mxCell id="eLIHctDLw3GJHYmIPz8b-28" value="" style="endArrow=none;html=1;rounded=0;exitX=0;exitY=0.25;exitDx=0;exitDy=0;entryX=1;entryY=0.25;entryDx=0;entryDy=0;" edge="1" parent="eLIHctDLw3GJHYmIPz8b-1">
          <mxGeometry width="50" height="50" relative="1" as="geometry">
            <mxPoint x="583.768115942029" y="154.375" as="sourcePoint" />
            <mxPoint x="760" y="154.375" as="targetPoint" />
          </mxGeometry>
        </mxCell>
        <mxCell id="eLIHctDLw3GJHYmIPz8b-29" value="Movimientos" style="text;html=1;align=center;verticalAlign=middle;whiteSpace=wrap;rounded=0;" vertex="1" parent="eLIHctDLw3GJHYmIPz8b-1">
          <mxGeometry x="638.8405797101449" y="11.875" width="66.08695652173913" height="35.625" as="geometry" />
        </mxCell>
        <mxCell id="eLIHctDLw3GJHYmIPz8b-30" value="-Tipo: TipoMovimientos&lt;div&gt;&lt;/div&gt;&lt;div&gt;-fecha: date&lt;/div&gt;" style="text;html=1;align=center;verticalAlign=middle;whiteSpace=wrap;rounded=0;" vertex="1" parent="eLIHctDLw3GJHYmIPz8b-1">
          <mxGeometry x="561.7391304347826" y="59.375" width="198.2608695652174" height="35.625" as="geometry" />
        </mxCell>
        <mxCell id="eLIHctDLw3GJHYmIPz8b-31" value="" style="group" vertex="1" connectable="0" parent="eLIHctDLw3GJHYmIPz8b-1">
          <mxGeometry x="594.7826086956521" y="320.625" width="154.20289855072463" height="166.25" as="geometry" />
        </mxCell>
        <mxCell id="eLIHctDLw3GJHYmIPz8b-32" value="" style="rounded=0;whiteSpace=wrap;html=1;" vertex="1" parent="eLIHctDLw3GJHYmIPz8b-31">
          <mxGeometry width="154.20289855072463" height="166.25" as="geometry" />
        </mxCell>
        <mxCell id="eLIHctDLw3GJHYmIPz8b-33" value="" style="endArrow=none;html=1;rounded=0;entryX=0;entryY=0.25;entryDx=0;entryDy=0;exitX=1;exitY=0.25;exitDx=0;exitDy=0;" edge="1" parent="eLIHctDLw3GJHYmIPz8b-31">
          <mxGeometry width="50" height="50" relative="1" as="geometry">
            <mxPoint x="154.20289855072463" y="47.5" as="sourcePoint" />
            <mxPoint y="47.5" as="targetPoint" />
          </mxGeometry>
        </mxCell>
        <mxCell id="eLIHctDLw3GJHYmIPz8b-34" value="TipoMovimientos&lt;div&gt;&lt;br&gt;&lt;/div&gt;" style="text;html=1;align=center;verticalAlign=middle;whiteSpace=wrap;rounded=0;" vertex="1" parent="eLIHctDLw3GJHYmIPz8b-31">
          <mxGeometry x="44.05797101449275" y="11.875" width="66.08695652173913" height="35.625" as="geometry" />
        </mxCell>
        <mxCell id="eLIHctDLw3GJHYmIPz8b-35" value="" style="endArrow=none;html=1;rounded=0;entryX=0;entryY=0.25;entryDx=0;entryDy=0;exitX=1;exitY=0.25;exitDx=0;exitDy=0;" edge="1" parent="eLIHctDLw3GJHYmIPz8b-31">
          <mxGeometry width="50" height="50" relative="1" as="geometry">
            <mxPoint x="154.20289855072463" y="130.42312499999997" as="sourcePoint" />
            <mxPoint y="130.42312499999997" as="targetPoint" />
          </mxGeometry>
        </mxCell>
        <mxCell id="eLIHctDLw3GJHYmIPz8b-36" value="tipo1: ingreso&lt;div&gt;tipo2: retirada&lt;/div&gt;" style="text;html=1;align=center;verticalAlign=middle;whiteSpace=wrap;rounded=0;" vertex="1" parent="eLIHctDLw3GJHYmIPz8b-31">
          <mxGeometry y="59.375" width="143.18840579710144" height="35.625" as="geometry" />
        </mxCell>
        <mxCell id="eLIHctDLw3GJHYmIPz8b-37" value="" style="endArrow=none;html=1;rounded=0;exitX=0.607;exitY=-0.006;exitDx=0;exitDy=0;exitPerimeter=0;" edge="1" parent="eLIHctDLw3GJHYmIPz8b-1">
          <mxGeometry width="50" height="50" relative="1" as="geometry">
            <mxPoint x="671.8840579710145" y="319.62749999999994" as="sourcePoint" />
            <mxPoint x="671.9060869565217" y="213.75" as="targetPoint" />
            <Array as="points" />
          </mxGeometry>
        </mxCell>
        <mxCell id="eLIHctDLw3GJHYmIPz8b-38" value="&lt;font style=&quot;font-size: 8px;&quot;&gt;0:N&lt;/font&gt;" style="text;html=1;align=center;verticalAlign=middle;whiteSpace=wrap;rounded=0;" vertex="1" parent="eLIHctDLw3GJHYmIPz8b-1">
          <mxGeometry x="528.695652173913" y="71.25" width="66.08695652173913" height="35.625" as="geometry" />
        </mxCell>
        <mxCell id="eLIHctDLw3GJHYmIPz8b-39" value="&lt;font style=&quot;font-size: 8px;&quot;&gt;1:1&lt;/font&gt;" style="text;html=1;align=center;verticalAlign=middle;whiteSpace=wrap;rounded=0;" vertex="1" parent="eLIHctDLw3GJHYmIPz8b-1">
          <mxGeometry x="451.59420289855075" y="71.25" width="66.08695652173913" height="35.625" as="geometry" />
        </mxCell>
        <mxCell id="eLIHctDLw3GJHYmIPz8b-40" value="&lt;font style=&quot;font-size: 9px;&quot;&gt;Realiza&lt;/font&gt;" style="text;html=1;align=center;verticalAlign=middle;whiteSpace=wrap;rounded=0;" vertex="1" parent="eLIHctDLw3GJHYmIPz8b-1">
          <mxGeometry x="484.6376811594203" y="106.875" width="66.08695652173913" height="35.625" as="geometry" />
        </mxCell>
        <mxCell id="eLIHctDLw3GJHYmIPz8b-41" value="Controla" style="text;html=1;align=center;verticalAlign=middle;whiteSpace=wrap;rounded=0;rotation=-90;fontSize=9;" vertex="1" parent="eLIHctDLw3GJHYmIPz8b-1">
          <mxGeometry x="324.92753623188406" y="261.25" width="66.08695652173913" height="35.625" as="geometry" />
        </mxCell>
        <mxCell id="eLIHctDLw3GJHYmIPz8b-42" value="Tiene" style="text;html=1;align=center;verticalAlign=middle;whiteSpace=wrap;rounded=0;fontSize=9;" vertex="1" parent="eLIHctDLw3GJHYmIPz8b-1">
          <mxGeometry x="209.2753623188406" y="59.375" width="66.08695652173913" height="35.625" as="geometry" />
        </mxCell>
      </root>
    </mxGraphModel>
  </diagram>
</mxfile>
